<?xml version="1.0" encoding="UTF-8"?>
<svg width="195px" height="50px" viewBox="0 0 195 50" version="1.1" xmlns="http://www.w3.org/2000/svg" xmlns:xlink="http://www.w3.org/1999/xlink">
    <title>logo skyss</title>
    <g id="Symbols" stroke="none" stroke-width="1" fill="none" fill-rule="evenodd">
        <g id="Group" transform="translate(-0.000846, 0.000000)">
            <path d="M26.1460248,30.9474099 C26.1893807,26.3126689 23.0851014,24.0039696 15.7709685,22.7986768 C12.5474606,22.2588964 10.6831588,21.9445664 10.0046397,21.7884854 C7.81733675,21.2833896 6.84833337,20.4032658 6.84833337,19.2196509 C6.87434688,18.3178491 7.19734801,17.8344313 8.32243247,17.3445101 C9.45402031,16.8849381 11.3660135,16.6529842 14.0909291,16.6573198 C16.7356363,16.6573198 19.3695045,16.8134009 22.5323142,17.1862613 L23.0742624,17.2491273 L23.8156476,12.3065597 L23.2346791,12.2350225 C19.5927872,11.8079673 15.6430687,11.5955236 12.7534009,11.5955236 C4.53746625,11.6085304 0.00894710827,13.9800957 0.000275937098,19.1134291 C-0.0257375764,22.3000845 1.78870499,24.7561937 4.94717909,25.8596002 C6.16981423,26.3126689 8.63676242,26.8307714 12.0813852,27.4702703 C14.4984741,27.8973255 15.4132827,28.1054336 16.2478829,28.3980856 C18.3983334,29.2001689 19.1093694,30.0651182 19.1093694,31.1099944 C19.0920271,32.07683 18.5934347,32.7640203 17.2992624,33.3601633 C16.0007545,33.9346284 13.9478548,34.2597973 11.235946,34.2532939 C8.52620499,34.2532939 5.82513517,34.0993806 1.77136265,33.6723255 L1.24242121,33.6202984 L1.1557095,34.1384009 L0.344954991,38.7254505 L0.96494373,38.7818131 C4.97102481,39.159009 8.47851355,39.3714527 11.4895777,39.3714527 C20.8457714,39.3606137 26.1308503,36.6313626 26.1460248,30.9474099 L26.1460248,30.9474099 Z" id="Path" fill="#151616"></path>
            <polygon id="Path" fill="#151616" points="60.4101577 39.0571227 44.5592568 23.832714 60.0958277 11.8231419 51.0713063 11.8231419 38.5566385 21.3592624 37.1584122 21.3592624 37.1584122 0 30.371053 0 30.371053 39.0571227 37.1584122 39.0571227 37.1584122 26.2606419 38.3853829 26.2628097 51.524375 39.0571227"></polygon>
            <path d="M92.5238401,38.0989583 L92.5238401,11.8253097 L85.4503322,11.8253097 L85.4503322,33.8804336 C83.612044,34.1318975 81.5027816,34.3204955 80.0460248,34.3204955 C71.8496003,34.3204955 70.9911543,31.8578829 70.9911543,27.379223 L70.9911543,11.8253097 L63.9349888,11.8253097 L63.9349888,27.4550957 C63.9349888,37.1494651 69.6883108,39.4581644 79.2504449,39.4581644 C81.0822298,39.4581644 83.8374944,39.14817 85.4178154,38.751464 C85.3918018,40.3404561 85.3744595,42.1657376 84.2211937,43.3211712 C83.1546397,44.3920608 80.8481081,44.5719876 77.2517399,44.5719876 C73.9957151,44.5719876 70.1457151,44.1666104 66.9092005,43.6615146 L66.0659291,48.7146396 C70.4383672,49.4646959 74.028232,49.8007038 77.5769088,49.8007038 C89.7577365,49.8007038 92.5238401,46.2845439 92.5238401,38.0989583 L92.5238401,38.0989583 Z" id="Path" fill="#151616"></path>
            <path d="M123.291323,30.9474099 C123.332511,26.3126689 120.228232,24.0039696 112.916267,22.7986768 C109.692759,22.2588964 107.830625,21.9445664 107.152106,21.7884854 C104.962635,21.2833896 103.991464,20.4032658 103.991464,19.2196509 C104.019645,18.3178491 104.338311,17.8344313 105.465563,17.3445101 C106.597151,16.8849381 108.511312,16.6529842 111.238395,16.6573198 C113.883103,16.6573198 116.514803,16.8134009 119.677613,17.1862613 L120.217393,17.2491273 L120.960946,12.3065597 L120.379978,12.2350225 C116.738086,11.8079673 112.786199,11.5955236 109.900867,11.5955236 C101.680597,11.6085304 97.1542455,13.9800957 97.1455744,19.1134291 C97.1195608,22.3000845 98.9340034,24.7561937 102.092478,25.8596002 C103.31728,26.3126689 105.779893,26.8307714 109.224516,27.4702703 C111.643773,27.8973255 112.558581,28.1054336 113.393181,28.3980856 C115.541464,29.2001689 116.2525,30.0651182 116.2525,31.1099944 C116.239493,32.07683 115.738733,32.7640203 114.442393,33.3601633 C113.146053,33.9346284 111.095321,34.2597973 108.379077,34.2532939 C105.671503,34.2532939 102.968266,34.0993806 98.9123255,33.6723255 L98.3877196,33.6202984 L98.3031757,34.1384009 L97.4880856,38.7254505 L98.1080744,38.7818131 C102.114155,39.159009 105.621644,39.3714527 108.632708,39.3714527 C117.99107,39.3606137 123.276149,36.6313626 123.291323,30.9474099 L123.291323,30.9474099 Z" id="Path" fill="#151616"></path>
            <path d="M152.582539,30.9474099 C152.623728,26.3126689 149.519448,24.0039696 142.207483,22.7986768 C138.983975,22.2588964 137.119673,21.9445664 136.443322,21.7884854 C134.251684,21.2833896 133.284848,20.4032658 133.284848,19.2196509 C133.310862,18.3178491 133.629527,17.8344313 134.758947,17.3445101 C135.886199,16.8849381 137.80036,16.6529842 140.527444,16.6573198 C143.172151,16.6573198 145.801684,16.8134009 148.968829,17.1862613 L149.506441,17.2491273 L150.252162,12.3065597 L149.669026,12.2350225 C146.027134,11.8079673 142.077416,11.5955236 139.189916,11.5955236 C130.969645,11.6085304 126.445462,13.9800957 126.436791,19.1134291 C126.410777,22.3000845 128.22522,24.7561937 131.383694,25.8596002 C132.604161,26.3126689 135.071109,26.8307714 138.515732,27.4702703 C140.934989,27.8973255 141.849797,28.1054336 142.68223,28.3980856 C144.834848,29.2001689 145.543716,30.0651182 145.543716,31.1099944 C145.528542,32.07683 145.029949,32.7640203 143.733609,33.3601633 C142.439437,33.9346284 140.384369,34.2597973 137.668125,34.2532939 C134.960552,34.2532939 132.257314,34.0993806 128.205709,33.6723255 L127.678936,33.6202984 L127.594392,34.1384009 L126.779302,38.7254505 L127.399291,38.7818131 C131.407539,39.159009 134.91286,39.3714527 137.923925,39.3714527 C147.282286,39.3606137 152.569533,36.6313626 152.582539,30.9474099 L152.582539,30.9474099 Z" id="Path" fill="#151616"></path>
            <path d="M194.528896,12.7201745 L194.509386,11.8205405 L165.86634,11.8205405 L165.848998,12.7201745 C165.844662,12.8133896 165.673407,22.403705 167.323097,29.3493131 C167.622252,30.6088007 167.969099,31.7338851 168.357134,32.6898818 C169.241594,34.8858559 170.444719,36.9734403 171.927489,38.8962725 C174.398773,42.1046059 177.169212,44.3049155 179.397703,46.07817 L180.188947,46.70683 L180.980191,46.07817 C183.206515,44.3027477 185.979122,42.1024381 188.44607,38.8962725 C189.931008,36.9734403 191.136301,34.8858559 192.018592,32.6898818 C192.406627,31.7295495 192.753474,30.6044651 193.050462,29.3493131 C194.70232,22.3993694 194.531064,12.8133896 194.528896,12.7201745" id="Fill-4" fill="#151616"></path>
            <path d="M192.157765,29.1353519 C191.882455,30.2951211 191.555118,31.3855208 191.167083,32.345853 C190.232765,34.6653913 189.031807,36.635915 187.722461,38.3354645 L187.720293,38.3376323 L172.654133,38.3376323 L180.189381,29.1353519 L168.218829,29.1353519 C166.571306,22.2070861 166.76424,12.740335 166.76424,12.740335 L180.189381,29.1353519 L193.610186,12.740335 C193.610186,12.740335 193.803119,22.2070861 192.157765,29.1353519" id="Fill-7" fill="#FEFEFE"></path>
        </g>
    </g>
</svg>